<?xml version="1.0" encoding="UTF-8"?>
<svg xmlns="http://www.w3.org/2000/svg" version="1.1" viewBox="0 0 131.65 131.65">
  <defs>
    <style>
      .cls-1 {
        fill: #b2ddfb;
      }

      .cls-2 {
        fill: #c230ce;
      }

      .cls-3 {
        fill: #ffd4a5;
      }

      .cls-4 {
        fill: #7ac0d3;
      }

      .cls-5 {
        fill: #cae9b4;
      }

      .cls-6 {
        fill: #7e7e7f;
      }

      .cls-7 {
        fill: #ee93ad;
      }

      .cls-8 {
        fill: #999;
      }

      .cls-9 {
        display: none;
      }

      .cls-10 {
        fill: #ffcade;
      }

      .cls-11 {
        fill: #6dba57;
      }
    </style>
  </defs>
  <!-- Generator: Adobe Illustrator 28.7.1, SVG Export Plug-In . SVG Version: 1.2.0 Build 142)  -->
  <g>
    <g id="_レイヤー_1" data-name="レイヤー_1" class="cls-9">
      <circle class="cls-4" cx="65.73" cy="65.36" r="59.72"/>
    </g>
    <g id="_レイヤー_3" data-name="レイヤー_3" class="cls-9">
      <polygon class="cls-11" points="66.26 17.22 3.7 125.58 128.82 125.58 66.26 17.22"/>
    </g>
    <g id="_レイヤー_4" data-name="レイヤー_4" class="cls-9">
      <rect class="cls-2" x="11.61" y="16.75" width="109.3" height="109.3"/>
    </g>
    <g id="_レイヤー_5" data-name="レイヤー_5" class="cls-9">
      <path class="cls-3" d="M32.86,28.36v81.12c0,2.47,2.01,4.48,4.48,4.48.92,0,1.83-.28,2.58-.81l28.36-19.85,28.36,19.85c.76.54,1.66.81,2.58.81,2.47,0,4.48-2.01,4.48-4.48V28.36c0-4.89-3.97-8.86-8.86-8.86h-53.13c-4.89,0-8.86,3.97-8.86,8.86Z"/>
    </g>
    <g id="_レイヤー_10" data-name="レイヤー_10">
      <path class="cls-1" d="M125.95,77.76c-.24,4.79-2.15,9.3-5.3,12.56s-7.32,5.06-11.63,5h-40.69c-.9,0-1.75-.42-2.39-1.12s-.99-1.66-.99-2.66v-48.74c-.04-.83.17-1.66.58-2.37s.99-1.27,1.68-1.6c0,0,3.75-2.89,11.63-2.89,4.82,0,9.54,1.43,13.68,4.17,3.23,2.12,6.03,4.94,8.23,8.32,2.2,3.38,3.73,7.22,4.52,11.29,1.4-.44,2.86-.66,4.31-.66,2.18-.02,4.35.46,6.38,1.39s3.83,2.35,5.36,4.09,2.72,3.8,3.53,6.08c.8,2.28,1.18,4.69,1.1,7.12h0ZM59.88,45.89c.02-.21,0-.42-.06-.6s-.15-.37-.28-.54-.28-.27-.45-.35-.35-.12-.54-.12-.37.04-.54.12-.32.21-.45.35-.22.33-.28.54-.07.39-.06.6c-1.12,16.38-1.98,31.74,0,48.07.04.35.19.68.43.93s.56.37.88.37.63-.12.88-.37.39-.58.43-.93c2.11-16.48,1.23-31.55,0-48.07h.04ZM51.67,51.56c-.04-.37-.21-.73-.45-.98s-.58-.39-.93-.39-.67.15-.93.39-.41.6-.45.98c-1.47,14.09-1.47,28.33,0,42.43.06.37.22.71.47.93s.58.37.9.37.65-.12.9-.37.41-.58.47-.93c1.64-14.07,1.64-28.33.02-42.43h.02ZM43.4,50.13c-.04-.37-.19-.71-.43-.95s-.56-.37-.9-.37-.65.15-.9.37-.39.58-.43.95c-1.25,14.95-1.9,28.92,0,43.82,0,.39.13.77.39,1.04s.58.44.93.44.69-.15.93-.44.39-.64.39-1.04c1.96-15.11,1.36-28.69.02-43.82h-.02ZM35.19,54.4c0-.39-.15-.79-.39-1.08s-.6-.44-.97-.44-.71.17-.97.44-.39.66-.39,1.08c-1.51,13.14-1.51,26.47,0,39.61.04.37.19.71.45.95s.58.39.9.39.65-.15.9-.39.41-.58.45-.95c1.64-13.14,1.66-26.47.06-39.61h-.02ZM26.88,64.28c0-.39-.15-.79-.39-1.06s-.6-.44-.95-.44-.71.17-.95.44-.39.66-.39,1.06c-1.96,10.21-1.03,19.49.07,29.81.06.33.21.64.43.87s.52.35.84.35.6-.12.84-.35.39-.52.43-.87c1.23-10.46,2.16-19.53.07-29.81h0ZM18.65,62.73c-.04-.37-.21-.73-.45-1s-.6-.39-.93-.39-.67.15-.93.39-.41.6-.45,1c-1.74,10.42-1.16,19.6.06,29.99.13,1.58,2.54,1.56,2.69,0,1.34-10.57,1.96-19.47.06-29.99h-.04ZM10.33,67.83c-.04-.37-.21-.73-.45-1s-.6-.39-.93-.39-.67.15-.93.39-.43.6-.45,1c-1.59,7-1.1,12.79.11,19.8.04.35.19.68.43.91s.54.37.88.37.63-.12.88-.37.39-.56.43-.91c1.4-7.16,2.09-12.83.07-19.8h-.04Z"/>
    </g>
    <g id="_レイヤー_9" data-name="レイヤー_9" class="cls-9">
      <path class="cls-5" d="M45.06,83.4c21.19,0,38.35-14.53,38.35-32.45s-17.17-32.45-38.35-32.45S6.71,33.03,6.71,50.95c0,7.12,2.71,13.7,7.3,19.07-.65,1.73-1.6,3.26-2.62,4.55-.89,1.14-1.79,2.03-2.45,2.64-.33.3-.61.53-.79.68-.09.07-.17.13-.2.15l-.04.04h0c-1.01.76-1.46,2.08-1.05,3.28s1.53,2.05,2.8,2.05c4.02,0,8.08-1.03,11.45-2.3,1.7-.65,3.28-1.36,4.65-2.1,5.68,2.8,12.26,4.41,19.3,4.41ZM89.31,50.95c0,20.71-18.27,36.3-39.92,38.17,4.48,13.72,19.34,23.79,36.97,23.79,7.04,0,13.63-1.6,19.3-4.41,1.38.74,2.95,1.46,4.65,2.1,3.37,1.27,7.43,2.3,11.45,2.3,1.27,0,2.42-.83,2.8-2.05.39-1.22-.04-2.54-1.07-3.3h0l-.04-.04s-.11-.07-.2-.15c-.18-.15-.46-.37-.79-.68-.66-.61-1.57-1.49-2.45-2.64-1.01-1.29-1.97-2.84-2.62-4.55,4.59-5.35,7.3-11.93,7.3-19.07,0-17.11-15.65-31.14-35.51-32.36.07.94.11,1.9.11,2.86l.02.02Z"/>
    </g>
    <g id="_レイヤー_6" data-name="レイヤー_6" class="cls-9">
      <path class="cls-8" d="M40.34,10.57c-11.53,0-20.88,9.35-20.88,20.88v69.61c0,11.53,9.35,20.88,20.88,20.88h69.61c3.85,0,6.96-3.11,6.96-6.96s-3.11-6.96-6.96-6.96v-13.92c3.85,0,6.96-3.11,6.96-6.96V17.53c0-3.85-3.11-6.96-6.96-6.96H40.34ZM40.34,94.1h55.69v13.92h-55.69c-3.85,0-6.96-3.11-6.96-6.96s3.11-6.96,6.96-6.96ZM47.3,41.9c0-1.91,1.57-3.48,3.48-3.48h41.77c1.91,0,3.48,1.57,3.48,3.48s-1.57,3.48-3.48,3.48h-41.77c-1.91,0-3.48-1.57-3.48-3.48ZM50.78,52.34h41.77c1.91,0,3.48,1.57,3.48,3.48s-1.57,3.48-3.48,3.48h-41.77c-1.91,0-3.48-1.57-3.48-3.48s1.57-3.48,3.48-3.48Z"/>
    </g>
    <g id="_レイヤー_7" data-name="レイヤー_7" class="cls-9">
      <path class="cls-1" d="M66.26,114.35c-21.2,0-38.4-17.2-38.4-38.4,0-18.24,26.04-52.46,33.32-61.66,1.2-1.5,2.98-2.34,4.9-2.34h.36c1.92,0,3.7.84,4.9,2.34,7.28,9.2,33.32,43.42,33.32,61.66,0,21.2-17.2,38.4-38.4,38.4ZM47.06,79.15c0-1.76-1.44-3.2-3.2-3.2s-3.2,1.44-3.2,3.2c0,12.38,10.02,22.4,22.4,22.4,1.76,0,3.2-1.44,3.2-3.2s-1.44-3.2-3.2-3.2c-8.84,0-16-7.16-16-16Z"/>
    </g>
    <g id="_レイヤー_8" data-name="レイヤー_8" class="cls-9">
      <path class="cls-10" d="M61.96,12.7c2.78-1,5.82-1,8.62,0l38.4,13.72c5.08,1.82,8.48,6.64,8.48,12.06v48.58c0,5.4-3.4,10.24-8.5,12.06l-38.4,13.72c-2.78,1-5.82,1-8.62,0l-38.4-13.72c-5.08-1.84-8.48-6.66-8.48-12.08v-48.56c0-5.4,3.4-10.24,8.5-12.06,0,0,38.4-13.72,38.4-13.72ZM66.26,24.76l-34.74,12.4,34.74,12.4,34.74-12.4-34.74-12.4ZM72.66,98.48l32-11.42v-37.6l-32,11.42v37.6Z"/>
    </g>
    <g id="_レイヤー_2" data-name="レイヤー_2" class="cls-9">
      <polygon class="cls-11" points="198.06 17.35 135.5 125.71 260.63 125.71 198.06 17.35"/>
      <rect class="cls-6" x="284.39" y="17.11" width="109.3" height="109.3"/>
      <polygon class="cls-7" points="97.71 16.4 34.46 16.4 2.83 71.18 34.46 125.96 97.71 125.96 129.34 71.18 97.71 16.4"/>
    </g>
  </g>
</svg>